<?xml version="1.0" encoding="utf-8"?>
<!-- Generator: Adobe Illustrator 18.0.0, SVG Export Plug-In . SVG Version: 6.00 Build 0)  -->
<!DOCTYPE svg PUBLIC "-//W3C//DTD SVG 1.1 Tiny//EN" "http://www.w3.org/Graphics/SVG/1.1/DTD/svg11-tiny.dtd">
<svg version="1.1" baseProfile="tiny" id="Layer_1" xmlns="http://www.w3.org/2000/svg" xmlns:xlink="http://www.w3.org/1999/xlink"
	 x="0px" y="0px" viewBox="0 137 612 518" xml:space="preserve">
<g>
	<path d="M504.3,558.1c-102,0-203.3,0-305.1,0c27.2,8.9,40.1,27.3,37.3,52.9c-2.1,19.5-20.2,37.4-39.7,39.2
		c-23.8,2.1-44.1-11-50.5-32.9c-7.1-24.7,3.3-42.9,34.3-59.3c-4.6,0-8.5,0-12.4,0c-16.8-0.3-27.4-14.8-22.1-30.9
		c4.3-12.8,11.1-24.5,17.6-36.3c2-3.8,2.7-7.2,1.8-11.4c-20.6-95.3-41.2-190.7-61.6-286.1c-1-4.6-2.8-5.6-7.1-5.4
		c-22.5,0.3-45.1,0.3-67.6,0c-12.1-0.1-21.7-8.7-23-20.1c-1.4-11.6,5.6-22.1,17.1-25.2c2.8-0.6,5.8-0.8,8.7-0.8
		c28.8,0,57.8,0,86.6,0c14,0,21.2,5.3,25.7,18.7c2.5,7.6,3.7,15.6,4.9,23.4c0.5,3.2,1.8,4.4,4.8,4.2c1.5-0.1,2.9,0,4.4,0
		c140,0,279.8,0,419.8,0c5.3,0,10.6-0.4,15.4,2.3c8.2,4.4,13.3,11.1,13.3,20.6c0.1,61.7,0.1,123.5,0,185.2c0,12.1-8,21.2-20.2,22.9
		c-24,3.2-48,5.7-72.1,8.6c-41.3,4.8-82.8,9.6-124.2,14.5c-41.3,4.8-82.8,9.7-124.2,14.5c-17.6,2-35.2,4.2-52.7,6.1
		c-3.4,0.4-4.4,1.5-3.5,4.7c0.6,2,0.6,4.2,1.4,6.2c4.2,11.5,2.4,22.4-3.7,32.6c-3,5.2-0.8,5.6,3.9,5.6c72.1-0.1,144.1-0.1,216.2-0.1
		c35.8,0,71.7-0.1,107.5,0c15.9,0,26.2,10.4,25.2,25c-0.8,11.1-10.2,20.6-21.4,21.1c-5.2,0.3-10.4,0-16.4,0
		c28.5,10.4,41.1,29,37.4,54.1c-2.9,20.1-21.7,37.2-42,38.2c-23.4,1.1-43.5-13.2-48.7-34.6C463.6,590.9,474.7,572.3,504.3,558.1z"/>
</g>
<circle fill="#AEF4FF" cx="372" cy="314.4" r="100.1"/>
<text transform="matrix(1 0 0 1 331.2891 359.3311)" fill="#FF0000" stroke="#CC0000" stroke-width="6" stroke-miterlimit="10" font-family="'ArialRoundedMTBold'" font-size="128.9752">1</text>
</svg>
