<?xml version="1.0" encoding="utf-8"?>
<!-- Generator: Adobe Illustrator 18.0.0, SVG Export Plug-In . SVG Version: 6.00 Build 0)  -->
<!DOCTYPE svg PUBLIC "-//W3C//DTD SVG 1.1//EN" "http://www.w3.org/Graphics/SVG/1.1/DTD/svg11.dtd">
<svg version="1.1" id="Layer_1" xmlns="http://www.w3.org/2000/svg" xmlns:xlink="http://www.w3.org/1999/xlink" x="0px" y="0px"
	 viewBox="3 89 609 609" enable-background="new 3 89 609 609" xml:space="preserve">
<g id="Layer_1_1_" display="none">
	<path display="inline" d="M306,184.2C140.9,184.2,7.2,321.4,7.2,490.6c0,135.4,85.7,250.2,204.4,290.7c1.9,0.4,3.5,0.5,5,0.5
		c11.1,0,15.3-8.1,15.3-15.2c0-7.3-0.2-26.5-0.4-52.1c-11.2,2.5-21.2,3.6-30.1,3.6c-57.5,0-70.5-44.7-70.5-44.7
		c-13.6-35.4-33.2-44.8-33.2-44.8c-26.1-18.3-0.1-18.8,1.9-18.8c0.1,0,0.1,0,0.1,0c30,2.6,45.8,31.8,45.8,31.8
		c14.9,26.2,34.9,33.5,52.8,33.5c14,0,26.7-4.5,34.2-8c2.6-19.7,10.4-33.2,18.9-41C185,618.3,115.2,592,115.2,474.6
		c0-33.5,11.6-60.8,30.7-82.2c-3.1-7.8-13.4-39,3-81.2c0,0,2.2-0.7,6.7-0.7c10.8,0,35.3,4.2,75.5,32.2c23.9-6.8,49.4-10.2,74.8-10.3
		c25.3,0.1,50.9,3.5,74.8,10.3c40.3-28,64.7-32.2,75.5-32.2c4.5,0,6.7,0.7,6.7,0.7c16.3,42.2,6,73.4,3,81.2
		c19.1,21.5,30.7,48.8,30.7,82.2c0,117.6-69.9,143.6-136.5,151.2c10.6,9.4,20.3,28.1,20.3,56.7c0,41-0.4,74-0.4,84
		c0,7.2,4.2,15.3,15.2,15.3c1.6,0,3.5-0.1,5.4-0.5c119-40.5,204.6-155.3,204.6-290.6C604.8,321.4,471.1,184.2,306,184.2z"/>
</g>
<g id="Layer_3">
	<g>
		<path fill="none" d="M306.8,244.1c-129.8,0-235,105.2-235,235c0,62.9,24.8,120.1,65.1,162.3c8.6-3.2,17.6-6.5,27-9.8
			c21-7.5,36.4-13.7,46.2-18.6c12.4-6.3,21.9-15.4,28.8-27.4c6.8-12,10.2-24.5,10.2-37.5c0-8.8-5.3-19.2-15.9-31.3
			c-10.7-12.4-19.4-29.2-26.1-50.4c-6.7-21.3-10-45.8-10-73.5c0-20.9,3-39.4,8.9-55.7c5.9-16.3,14-29.3,24.3-39.1s21.9-17.2,35-22.3
			c13.1-5.1,27.1-7.6,42-7.6s28.8,2.5,41.7,7.6c12.9,5.1,24.5,12.5,34.9,22.3c10.3,9.8,18.5,22.8,24.4,39.1
			c5.9,16.3,8.9,34.8,8.9,55.7c0,27.8-3.3,52.3-9.9,73.5c-6.6,21.3-15.2,38.1-26,50.4c-10.7,12.2-16.1,22.6-16.1,31.3
			c0,12.8,3.4,25.3,10.3,37.4c6.9,12.1,16.5,21.3,28.9,27.6c9.8,5,25.2,11.2,46.2,18.6c9.2,3.3,17.9,6.5,26.3,9.6
			c40.2-42.2,64.8-99.2,64.8-162C541.8,349.3,436.6,244.1,306.8,244.1z"/>
		<path fill="#333333" d="M404.5,532.9c-12.4-6.3-22-15.4-28.9-27.6c-6.9-12.1-10.3-24.6-10.3-37.4c0-8.7,5.4-19.1,16.1-31.3
			c10.7-12.4,19.4-29.2,26-50.4c6.6-21.3,9.9-45.8,9.9-73.5c0-20.9-3-39.4-8.9-55.7c-5.9-16.3-14.1-29.3-24.4-39.1
			c-10.3-9.8-22-17.2-34.9-22.3s-26.8-7.6-41.7-7.6c-14.9,0-28.9,2.5-42,7.6s-24.7,12.5-35,22.3S212,240.7,206.1,257
			c-5.9,16.3-8.9,34.8-8.9,55.7c0,27.8,3.3,52.3,10,73.5c6.7,21.3,15.4,38.1,26.1,50.4c10.6,12,15.9,22.5,15.9,31.3
			c0,13-3.4,25.5-10.2,37.5c-6.8,12-16.4,21.2-28.8,27.4c-9.8,5-25.2,11.2-46.2,18.6c-9.5,3.4-18.4,6.6-27,9.8
			c42.8,44.8,103.1,72.7,169.9,72.7c67,0,127.4-28,170.2-72.9c-8.3-3.1-17.1-6.3-26.3-9.6C429.7,544.1,414.3,537.9,404.5,532.9z"/>
	</g>
</g>
<g id="Layer_2">
</g>
<path fill="#333333" d="M306.8,91.9C140.4,91.9,5.6,226.7,5.6,393.1s134.9,301.2,301.2,301.2S608,559.4,608,393.1
	S473.1,91.9,306.8,91.9z M306.8,628.1c-129.8,0-235-105.2-235-235s105.2-235,235-235s235,105.2,235,235S436.6,628.1,306.8,628.1z"/>
</svg>
