<?xml version="1.0" encoding="utf-8"?>
<!-- Generator: Adobe Illustrator 18.0.0, SVG Export Plug-In . SVG Version: 6.00 Build 0)  -->
<!DOCTYPE svg PUBLIC "-//W3C//DTD SVG 1.1//EN" "http://www.w3.org/Graphics/SVG/1.1/DTD/svg11.dtd">
<svg version="1.1" id="Layer_1" xmlns="http://www.w3.org/2000/svg" xmlns:xlink="http://www.w3.org/1999/xlink" x="0px" y="0px"
	 viewBox="0 0 512 512" enable-background="new 0 0 512 512" xml:space="preserve">
<path d="M256,6C117.9,6,6,120.8,6,262.4c0,113.3,71.7,209.3,171,243.2c1.6,0.3,2.9,0.4,4.2,0.4c9.3,0,12.8-6.8,12.8-12.7
	c0-6.1-0.2-22.2-0.3-43.6c-9.4,2.1-17.7,3-25.2,3c-48.1,0-59-37.4-59-37.4c-11.4-29.6-27.8-37.5-27.8-37.5
	c-21.8-15.3-0.1-15.7,1.6-15.7c0.1,0,0.1,0,0.1,0c25.1,2.2,38.3,26.6,38.3,26.6c12.5,21.9,29.2,28,44.2,28c11.7,0,22.3-3.8,28.6-6.7
	c2.2-16.5,8.7-27.8,15.8-34.3C154.8,369.2,96.4,347.2,96.4,249c0-28,9.7-50.9,25.7-68.8c-2.6-6.5-11.2-32.6,2.5-67.9
	c0,0,1.8-0.6,5.6-0.6c9,0,29.5,3.5,63.2,26.9c20-5.7,41.3-8.5,62.6-8.6c21.2,0.1,42.6,2.9,62.6,8.6c33.7-23.4,54.1-26.9,63.2-26.9
	c3.8,0,5.6,0.6,5.6,0.6c13.6,35.3,5,61.4,2.5,67.9c16,18,25.7,40.8,25.7,68.8c0,98.4-58.5,120.1-114.2,126.5
	c8.9,7.9,17,23.5,17,47.4c0,34.3-0.3,61.9-0.3,70.3c0,6,3.5,12.8,12.7,12.8c1.3,0,2.9-0.1,4.5-0.4c99.4-33.9,171-130,171-243.2
	C506,120.8,394.1,6,256,6z"/>
</svg>
